<mxfile host="app.diagrams.net" modified="2021-03-26T09:08:03.791Z" agent="5.0 (Macintosh; Intel Mac OS X 10_15_6) AppleWebKit/605.1.15 (KHTML, like Gecko) Version/14.0.3 Safari/605.1.15" etag="jm-cKFLuNgHyENrX6jgi" version="14.5.1" type="github">
  <diagram id="gJfHsk6H4Vccyh8YfghG" name="Page-1">
    <mxGraphModel dx="984" dy="564" grid="1" gridSize="10" guides="1" tooltips="1" connect="1" arrows="1" fold="1" page="1" pageScale="1" pageWidth="1169" pageHeight="1654" math="0" shadow="0">
      <root>
        <mxCell id="0" />
        <mxCell id="1" parent="0" />
        <mxCell id="uxz5wJ2GPydgfhKafKj_-7" value="" style="ellipse;whiteSpace=wrap;html=1;aspect=fixed;fontSize=14;fillColor=#000000;" vertex="1" parent="1">
          <mxGeometry x="110" y="240" width="10" height="10" as="geometry" />
        </mxCell>
        <mxCell id="uxz5wJ2GPydgfhKafKj_-8" value="" style="endArrow=none;html=1;fontSize=14;" edge="1" parent="1" target="uxz5wJ2GPydgfhKafKj_-7">
          <mxGeometry width="50" height="50" relative="1" as="geometry">
            <mxPoint x="120" y="240" as="sourcePoint" />
            <mxPoint x="960" y="240" as="targetPoint" />
            <Array as="points" />
          </mxGeometry>
        </mxCell>
        <mxCell id="uxz5wJ2GPydgfhKafKj_-9" value="" style="ellipse;whiteSpace=wrap;html=1;aspect=fixed;fontSize=14;fillColor=#000000;" vertex="1" parent="1">
          <mxGeometry x="240" y="160" width="10" height="10" as="geometry" />
        </mxCell>
        <mxCell id="uxz5wJ2GPydgfhKafKj_-10" value="" style="endArrow=none;html=1;fontSize=14;strokeWidth=2;dashed=1;" edge="1" parent="1" source="uxz5wJ2GPydgfhKafKj_-7" target="uxz5wJ2GPydgfhKafKj_-9">
          <mxGeometry width="50" height="50" relative="1" as="geometry">
            <mxPoint x="119.13463251034773" y="242.18844989296326" as="sourcePoint" />
            <mxPoint x="960" y="240" as="targetPoint" />
            <Array as="points" />
          </mxGeometry>
        </mxCell>
        <mxCell id="uxz5wJ2GPydgfhKafKj_-11" value="" style="ellipse;whiteSpace=wrap;html=1;aspect=fixed;fontSize=14;fillColor=#000000;" vertex="1" parent="1">
          <mxGeometry x="350" y="160" width="10" height="10" as="geometry" />
        </mxCell>
        <mxCell id="uxz5wJ2GPydgfhKafKj_-12" value="" style="endArrow=none;html=1;fontSize=14;strokeWidth=2;dashed=1;" edge="1" parent="1" source="uxz5wJ2GPydgfhKafKj_-9" target="uxz5wJ2GPydgfhKafKj_-11">
          <mxGeometry width="50" height="50" relative="1" as="geometry">
            <mxPoint x="249.99528079183438" y="164.78281387861603" as="sourcePoint" />
            <mxPoint x="960" y="240" as="targetPoint" />
            <Array as="points" />
          </mxGeometry>
        </mxCell>
        <mxCell id="uxz5wJ2GPydgfhKafKj_-13" value="" style="ellipse;whiteSpace=wrap;html=1;aspect=fixed;fontSize=14;fillColor=#000000;" vertex="1" parent="1">
          <mxGeometry x="470" y="230" width="10" height="10" as="geometry" />
        </mxCell>
        <mxCell id="uxz5wJ2GPydgfhKafKj_-14" value="" style="endArrow=none;html=1;fontSize=14;strokeWidth=2;dashed=1;" edge="1" parent="1" source="uxz5wJ2GPydgfhKafKj_-11" target="uxz5wJ2GPydgfhKafKj_-13">
          <mxGeometry width="50" height="50" relative="1" as="geometry">
            <mxPoint x="358.5355339059329" y="161.46446609406712" as="sourcePoint" />
            <mxPoint x="960" y="240" as="targetPoint" />
            <Array as="points" />
          </mxGeometry>
        </mxCell>
        <mxCell id="uxz5wJ2GPydgfhKafKj_-15" value="" style="ellipse;whiteSpace=wrap;html=1;aspect=fixed;fontSize=14;fillColor=#000000;" vertex="1" parent="1">
          <mxGeometry x="585" y="160" width="10" height="10" as="geometry" />
        </mxCell>
        <mxCell id="uxz5wJ2GPydgfhKafKj_-16" value="" style="endArrow=none;html=1;fontSize=14;strokeWidth=2;dashed=1;" edge="1" parent="1" source="uxz5wJ2GPydgfhKafKj_-13" target="uxz5wJ2GPydgfhKafKj_-15">
          <mxGeometry width="50" height="50" relative="1" as="geometry">
            <mxPoint x="470.8119470157003" y="232.26866109719595" as="sourcePoint" />
            <mxPoint x="960" y="240" as="targetPoint" />
            <Array as="points" />
          </mxGeometry>
        </mxCell>
        <mxCell id="uxz5wJ2GPydgfhKafKj_-17" value="" style="ellipse;whiteSpace=wrap;html=1;aspect=fixed;fontSize=14;fillColor=#000000;" vertex="1" parent="1">
          <mxGeometry x="710" y="230" width="10" height="10" as="geometry" />
        </mxCell>
        <mxCell id="uxz5wJ2GPydgfhKafKj_-18" value="" style="endArrow=none;html=1;fontSize=14;strokeWidth=2;dashed=1;" edge="1" parent="1" source="uxz5wJ2GPydgfhKafKj_-15" target="uxz5wJ2GPydgfhKafKj_-17">
          <mxGeometry width="50" height="50" relative="1" as="geometry">
            <mxPoint x="585.001181055904" y="164.89133002295443" as="sourcePoint" />
            <mxPoint x="960" y="240" as="targetPoint" />
            <Array as="points" />
          </mxGeometry>
        </mxCell>
        <mxCell id="uxz5wJ2GPydgfhKafKj_-19" value="" style="ellipse;whiteSpace=wrap;html=1;aspect=fixed;fontSize=14;fillColor=#000000;" vertex="1" parent="1">
          <mxGeometry x="830" y="200" width="10" height="10" as="geometry" />
        </mxCell>
        <mxCell id="uxz5wJ2GPydgfhKafKj_-20" value="" style="endArrow=none;html=1;fontSize=14;strokeWidth=2;dashed=1;" edge="1" parent="1" source="uxz5wJ2GPydgfhKafKj_-17" target="uxz5wJ2GPydgfhKafKj_-19">
          <mxGeometry width="50" height="50" relative="1" as="geometry">
            <mxPoint x="710.1079833591639" y="233.96647535756983" as="sourcePoint" />
            <mxPoint x="960" y="240" as="targetPoint" />
            <Array as="points" />
          </mxGeometry>
        </mxCell>
        <mxCell id="uxz5wJ2GPydgfhKafKj_-35" value="" style="ellipse;whiteSpace=wrap;html=1;aspect=fixed;fontSize=14;fillColor=#000000;" vertex="1" parent="1">
          <mxGeometry x="120" y="250" width="10" height="10" as="geometry" />
        </mxCell>
        <mxCell id="uxz5wJ2GPydgfhKafKj_-36" value="" style="endArrow=none;html=1;fontSize=14;" edge="1" parent="1" target="uxz5wJ2GPydgfhKafKj_-35">
          <mxGeometry width="50" height="50" relative="1" as="geometry">
            <mxPoint x="130" y="250" as="sourcePoint" />
            <mxPoint x="970" y="250" as="targetPoint" />
            <Array as="points" />
          </mxGeometry>
        </mxCell>
        <mxCell id="uxz5wJ2GPydgfhKafKj_-37" value="" style="ellipse;whiteSpace=wrap;html=1;aspect=fixed;fontSize=14;fillColor=#000000;" vertex="1" parent="1">
          <mxGeometry x="240" y="140" width="10" height="10" as="geometry" />
        </mxCell>
        <mxCell id="uxz5wJ2GPydgfhKafKj_-38" value="" style="endArrow=none;html=1;fontSize=14;strokeWidth=2;" edge="1" parent="1" source="uxz5wJ2GPydgfhKafKj_-35" target="uxz5wJ2GPydgfhKafKj_-37">
          <mxGeometry width="50" height="50" relative="1" as="geometry">
            <mxPoint x="129.13463251034773" y="252.18844989296326" as="sourcePoint" />
            <mxPoint x="970" y="250" as="targetPoint" />
            <Array as="points" />
          </mxGeometry>
        </mxCell>
        <mxCell id="uxz5wJ2GPydgfhKafKj_-39" value="" style="ellipse;whiteSpace=wrap;html=1;aspect=fixed;fontSize=14;fillColor=#000000;" vertex="1" parent="1">
          <mxGeometry x="360" y="180" width="10" height="10" as="geometry" />
        </mxCell>
        <mxCell id="uxz5wJ2GPydgfhKafKj_-40" value="" style="endArrow=none;html=1;fontSize=14;strokeWidth=2;" edge="1" parent="1" source="uxz5wJ2GPydgfhKafKj_-37" target="uxz5wJ2GPydgfhKafKj_-39">
          <mxGeometry width="50" height="50" relative="1" as="geometry">
            <mxPoint x="259.9952807918344" y="174.78281387861603" as="sourcePoint" />
            <mxPoint x="970" y="250" as="targetPoint" />
            <Array as="points" />
          </mxGeometry>
        </mxCell>
        <mxCell id="uxz5wJ2GPydgfhKafKj_-41" value="" style="ellipse;whiteSpace=wrap;html=1;aspect=fixed;fontSize=14;fillColor=#FF0000;" vertex="1" parent="1">
          <mxGeometry x="470" y="170" width="10" height="10" as="geometry" />
        </mxCell>
        <mxCell id="uxz5wJ2GPydgfhKafKj_-42" value="" style="endArrow=none;html=1;fontSize=14;strokeWidth=2;" edge="1" parent="1" source="uxz5wJ2GPydgfhKafKj_-39" target="uxz5wJ2GPydgfhKafKj_-41">
          <mxGeometry width="50" height="50" relative="1" as="geometry">
            <mxPoint x="368.5355339059329" y="171.46446609406712" as="sourcePoint" />
            <mxPoint x="970" y="250" as="targetPoint" />
            <Array as="points" />
          </mxGeometry>
        </mxCell>
        <mxCell id="uxz5wJ2GPydgfhKafKj_-43" value="" style="ellipse;whiteSpace=wrap;html=1;aspect=fixed;fontSize=14;fillColor=#000000;" vertex="1" parent="1">
          <mxGeometry x="585" y="180" width="10" height="10" as="geometry" />
        </mxCell>
        <mxCell id="uxz5wJ2GPydgfhKafKj_-44" value="" style="endArrow=none;html=1;fontSize=14;strokeWidth=2;" edge="1" parent="1" source="uxz5wJ2GPydgfhKafKj_-41" target="uxz5wJ2GPydgfhKafKj_-43">
          <mxGeometry width="50" height="50" relative="1" as="geometry">
            <mxPoint x="480.8119470157003" y="242.26866109719595" as="sourcePoint" />
            <mxPoint x="970" y="250" as="targetPoint" />
            <Array as="points" />
          </mxGeometry>
        </mxCell>
        <mxCell id="uxz5wJ2GPydgfhKafKj_-45" value="" style="ellipse;whiteSpace=wrap;html=1;aspect=fixed;fontSize=14;fillColor=#000000;" vertex="1" parent="1">
          <mxGeometry x="710" y="250" width="10" height="10" as="geometry" />
        </mxCell>
        <mxCell id="uxz5wJ2GPydgfhKafKj_-46" value="" style="endArrow=none;html=1;fontSize=14;strokeWidth=2;" edge="1" parent="1" source="uxz5wJ2GPydgfhKafKj_-43" target="uxz5wJ2GPydgfhKafKj_-45">
          <mxGeometry width="50" height="50" relative="1" as="geometry">
            <mxPoint x="595.001181055904" y="174.89133002295443" as="sourcePoint" />
            <mxPoint x="970" y="250" as="targetPoint" />
            <Array as="points" />
          </mxGeometry>
        </mxCell>
        <mxCell id="uxz5wJ2GPydgfhKafKj_-47" value="" style="ellipse;whiteSpace=wrap;html=1;aspect=fixed;fontSize=14;fillColor=#000000;" vertex="1" parent="1">
          <mxGeometry x="830" y="180" width="10" height="10" as="geometry" />
        </mxCell>
        <mxCell id="uxz5wJ2GPydgfhKafKj_-48" value="" style="endArrow=none;html=1;fontSize=14;strokeWidth=2;" edge="1" parent="1" source="uxz5wJ2GPydgfhKafKj_-45" target="uxz5wJ2GPydgfhKafKj_-47">
          <mxGeometry width="50" height="50" relative="1" as="geometry">
            <mxPoint x="720.1079833591639" y="243.96647535756983" as="sourcePoint" />
            <mxPoint x="970" y="250" as="targetPoint" />
            <Array as="points" />
          </mxGeometry>
        </mxCell>
        <mxCell id="uxz5wJ2GPydgfhKafKj_-53" value="" style="ellipse;whiteSpace=wrap;html=1;dashed=1;strokeWidth=1;fontSize=14;fillColor=none;dashPattern=1 2;perimeterSpacing=0;" vertex="1" parent="1">
          <mxGeometry x="55" y="205" width="120" height="80" as="geometry" />
        </mxCell>
        <mxCell id="uxz5wJ2GPydgfhKafKj_-54" value="" style="ellipse;whiteSpace=wrap;html=1;dashed=1;strokeWidth=1;fontSize=14;fillColor=none;dashPattern=1 2;perimeterSpacing=0;" vertex="1" parent="1">
          <mxGeometry x="185" y="125" width="120" height="80" as="geometry" />
        </mxCell>
        <mxCell id="uxz5wJ2GPydgfhKafKj_-55" value="" style="ellipse;whiteSpace=wrap;html=1;dashed=1;strokeWidth=1;fontSize=14;fillColor=none;dashPattern=1 2;perimeterSpacing=0;" vertex="1" parent="1">
          <mxGeometry x="295" y="125" width="120" height="80" as="geometry" />
        </mxCell>
        <mxCell id="uxz5wJ2GPydgfhKafKj_-56" value="" style="ellipse;whiteSpace=wrap;html=1;dashed=1;strokeWidth=1;fontSize=14;fillColor=none;dashPattern=1 2;perimeterSpacing=0;" vertex="1" parent="1">
          <mxGeometry x="415" y="195" width="120" height="80" as="geometry" />
        </mxCell>
        <mxCell id="uxz5wJ2GPydgfhKafKj_-57" value="" style="ellipse;whiteSpace=wrap;html=1;dashed=1;strokeWidth=1;fontSize=14;fillColor=none;dashPattern=1 2;perimeterSpacing=0;" vertex="1" parent="1">
          <mxGeometry x="530" y="125" width="120" height="80" as="geometry" />
        </mxCell>
        <mxCell id="uxz5wJ2GPydgfhKafKj_-58" value="" style="ellipse;whiteSpace=wrap;html=1;dashed=1;strokeWidth=1;fontSize=14;fillColor=none;dashPattern=1 2;perimeterSpacing=0;" vertex="1" parent="1">
          <mxGeometry x="655" y="195" width="120" height="80" as="geometry" />
        </mxCell>
        <mxCell id="uxz5wJ2GPydgfhKafKj_-59" value="" style="ellipse;whiteSpace=wrap;html=1;dashed=1;strokeWidth=1;fontSize=14;fillColor=none;dashPattern=1 2;perimeterSpacing=0;" vertex="1" parent="1">
          <mxGeometry x="775" y="165" width="120" height="80" as="geometry" />
        </mxCell>
        <mxCell id="uxz5wJ2GPydgfhKafKj_-60" value="" style="endArrow=classic;html=1;strokeWidth=1;fontSize=14;" edge="1" parent="1">
          <mxGeometry width="50" height="50" relative="1" as="geometry">
            <mxPoint x="520" y="120" as="sourcePoint" />
            <mxPoint x="480" y="170" as="targetPoint" />
          </mxGeometry>
        </mxCell>
        <mxCell id="uxz5wJ2GPydgfhKafKj_-61" value="&lt;font color=&quot;#ff0000&quot;&gt;Bod mimo toleranci&lt;/font&gt;" style="text;html=1;strokeColor=none;fillColor=none;align=center;verticalAlign=middle;whiteSpace=wrap;rounded=0;dashed=1;dashPattern=1 2;fontSize=14;" vertex="1" parent="1">
          <mxGeometry x="520" y="100" width="140" height="20" as="geometry" />
        </mxCell>
        <mxCell id="uxz5wJ2GPydgfhKafKj_-62" value="" style="endArrow=classic;html=1;strokeWidth=1;fontSize=14;" edge="1" parent="1">
          <mxGeometry width="50" height="50" relative="1" as="geometry">
            <mxPoint x="690" y="150" as="sourcePoint" />
            <mxPoint x="660" y="200" as="targetPoint" />
          </mxGeometry>
        </mxCell>
        <mxCell id="uxz5wJ2GPydgfhKafKj_-63" value="Referenční křivka" style="text;html=1;strokeColor=none;fillColor=none;align=center;verticalAlign=middle;whiteSpace=wrap;rounded=0;dashed=1;dashPattern=1 2;fontSize=14;" vertex="1" parent="1">
          <mxGeometry x="690" y="130" width="120" height="20" as="geometry" />
        </mxCell>
        <mxCell id="uxz5wJ2GPydgfhKafKj_-64" value="" style="endArrow=classic;html=1;strokeWidth=1;fontSize=14;" edge="1" parent="1">
          <mxGeometry width="50" height="50" relative="1" as="geometry">
            <mxPoint x="610" y="260" as="sourcePoint" />
            <mxPoint x="640" y="220" as="targetPoint" />
          </mxGeometry>
        </mxCell>
        <mxCell id="uxz5wJ2GPydgfhKafKj_-65" value="Naměřená křivka" style="text;html=1;strokeColor=none;fillColor=none;align=center;verticalAlign=middle;whiteSpace=wrap;rounded=0;dashed=1;dashPattern=1 2;fontSize=14;" vertex="1" parent="1">
          <mxGeometry x="520" y="265" width="120" height="20" as="geometry" />
        </mxCell>
        <mxCell id="uxz5wJ2GPydgfhKafKj_-66" value="" style="endArrow=classic;startArrow=classic;html=1;strokeWidth=1;fontSize=14;exitX=0;exitY=0.5;exitDx=0;exitDy=0;endSize=3;startSize=3;" edge="1" parent="1" source="uxz5wJ2GPydgfhKafKj_-53">
          <mxGeometry width="50" height="50" relative="1" as="geometry">
            <mxPoint x="60" y="244.67" as="sourcePoint" />
            <mxPoint x="110" y="244.67" as="targetPoint" />
          </mxGeometry>
        </mxCell>
        <mxCell id="uxz5wJ2GPydgfhKafKj_-67" value="" style="endArrow=classic;startArrow=classic;html=1;strokeWidth=1;fontSize=14;entryX=0.5;entryY=0;entryDx=0;entryDy=0;endSize=3;startSize=3;" edge="1" parent="1" target="uxz5wJ2GPydgfhKafKj_-53">
          <mxGeometry width="50" height="50" relative="1" as="geometry">
            <mxPoint x="114.83" y="240" as="sourcePoint" />
            <mxPoint x="115" y="210" as="targetPoint" />
          </mxGeometry>
        </mxCell>
        <mxCell id="uxz5wJ2GPydgfhKafKj_-72" value="&lt;font style=&quot;font-size: 10px&quot;&gt;x&lt;sub&gt;tol&lt;/sub&gt;&lt;/font&gt;" style="text;html=1;strokeColor=none;fillColor=none;align=center;verticalAlign=middle;whiteSpace=wrap;rounded=0;dashed=1;dashPattern=1 2;fontSize=14;" vertex="1" parent="1">
          <mxGeometry x="60" y="245" width="50" height="5" as="geometry" />
        </mxCell>
        <mxCell id="uxz5wJ2GPydgfhKafKj_-73" value="&lt;font&gt;&lt;font size=&quot;1&quot;&gt;y&lt;sub&gt;tol&lt;/sub&gt;&lt;/font&gt;&lt;/font&gt;" style="text;html=1;strokeColor=none;fillColor=none;align=center;verticalAlign=middle;whiteSpace=wrap;rounded=0;dashed=1;dashPattern=1 2;fontSize=14;" vertex="1" parent="1">
          <mxGeometry x="90" y="205" width="30" height="25" as="geometry" />
        </mxCell>
      </root>
    </mxGraphModel>
  </diagram>
</mxfile>
